<?xml version="1.0" standalone="no"?>
<!DOCTYPE svg PUBLIC "-//W3C//DTD SVG 20010904//EN"
 "http://www.w3.org/TR/2001/REC-SVG-20010904/DTD/svg10.dtd">
<svg version="1.0" xmlns="http://www.w3.org/2000/svg"
 width="200.000000pt" height="200.000000pt" viewBox="0 0 200.000000 200.000000"
 preserveAspectRatio="xMidYMid meet">
<metadata>
Created by potrace 1.11, written by Peter Selinger 2001-2013
</metadata>
<g transform="translate(0.000000,200.000000) scale(0.100000,-0.100000)"
fill="#000000" stroke="none">
<path d="M803 1642 c-26 -4 -73 -49 -74 -71 0 -9 0 -37 1 -63 2 -62 -19 -64
-58 -7 -84 125 -138 156 -208 118 -22 -11 -44 -48 -44 -74 0 -18 -37 -38 -52
-29 -24 15 -70 5 -86 -18 -23 -33 -23 -47 -1 -97 21 -47 20 -49 -28 -100 -26
-27 -29 -55 -8 -91 24 -42 18 -55 -34 -79 -47 -22 -100 -64 -102 -79 0 -4 -2
-25 -5 -48 -4 -31 1 -48 18 -74 24 -35 92 -75 143 -84 50 -9 149 -37 158 -45
4 -4 -13 -31 -38 -60 -62 -72 -69 -117 -29 -178 14 -22 119 -60 178 -65 16 -2
74 22 149 60 67 34 136 64 152 67 35 7 35 6 -74 -62 -42 -27 -75 -56 -86 -77
-17 -31 -17 -39 -5 -76 20 -59 50 -80 119 -80 34 0 65 -6 78 -15 45 -31 166
18 275 111 39 33 64 46 107 54 31 6 62 13 70 16 9 3 11 -1 6 -13 -4 -10 -10
-37 -12 -61 -5 -34 -2 -46 13 -57 24 -19 64 -10 84 17 59 82 94 94 149 54 25
-19 41 -23 69 -19 27 4 42 1 51 -11 7 -9 25 -16 38 -16 20 0 24 4 20 20 -8 33
7 31 64 -5 59 -38 69 -41 87 -23 9 9 0 18 -40 40 -60 33 -73 35 -38 8 14 -11
-29 5 -95 37 -91 43 -132 57 -168 57 l-47 1 29 14 30 14 -42 32 c-74 56 -106
68 -177 67 -106 -2 -239 -53 -433 -165 -54 -31 -95 -53 -92 -48 9 15 293 172
355 196 60 24 106 33 173 37 20 1 37 5 37 8 -1 10 -126 89 -187 118 l-63 29
-115 -23 c-185 -38 -315 -78 -467 -145 -50 -22 -92 -38 -94 -36 -14 14 331
151 428 171 39 8 131 25 165 31 17 3 41 9 53 13 21 8 20 9 -17 34 -54 35 -89
52 -159 76 -110 38 -188 46 -427 45 -98 0 -172 4 -165 8 13 9 409 4 486 -6 23
-3 42 -1 42 4 0 5 -33 38 -72 72 -40 35 -78 69 -84 74 -6 6 -29 25 -52 43 -23
19 -51 42 -63 53 -17 15 -40 19 -103 21 l-81 2 68 3 c37 2 67 8 67 13 0 4 -22
24 -49 44 -26 20 -55 43 -62 53 -19 23 68 -37 142 -99 52 -43 60 -47 55 -27
-4 16 -1 14 8 -7 8 -16 45 -57 83 -90 37 -32 81 -71 98 -86 67 -60 89 -77 126
-97 43 -25 43 -24 29 45 -16 81 -18 90 -40 169 -12 42 -20 79 -18 81 3 2 22
-58 43 -134 21 -75 43 -147 49 -160 9 -22 194 -157 203 -148 2 2 -5 48 -16
102 -20 100 -26 153 -35 279 -4 54 -3 61 3 30 5 -22 12 -62 15 -90 15 -108 23
-160 42 -260 13 -69 19 -83 46 -105 30 -23 156 -100 164 -100 2 0 4 46 4 102
0 130 10 122 14 -12 2 -113 -2 -105 106 -191 76 -60 81 -59 75 16 -2 36 -3 65
-1 65 3 0 10 -26 16 -57 16 -75 25 -88 88 -124 l53 -30 26 21 c14 11 32 20 39
20 8 0 14 5 14 10 0 6 -4 10 -9 10 -11 0 -21 27 -26 71 -5 38 -12 48 -40 59
-13 5 -38 30 -55 56 l-33 46 20 87 c24 105 17 141 -28 141 -20 0 -40 -12 -69
-42 -39 -41 -42 -42 -55 -24 -12 16 -12 24 2 58 11 27 14 57 10 101 -3 34 -2
80 2 102 9 50 -3 106 -35 171 -30 59 -70 87 -111 79 -87 -19 -116 -64 -117
-183 -1 -55 -5 -87 -13 -89 -14 -5 -21 30 -28 135 -3 46 -10 92 -16 104 -6 11
-11 46 -11 77 -1 72 -19 116 -57 135 -63 33 -111 10 -136 -64 -17 -51 -37 -76
-54 -66 -5 4 -21 32 -35 63 -15 31 -34 62 -44 70 -56 45 -77 53 -119 45z m111
-348 c3 -8 2 -12 -4 -9 -6 3 -10 10 -10 16 0 14 7 11 14 -7z m533 -191 c-3
-10 -5 -4 -5 12 0 17 2 24 5 18 2 -7 2 -21 0 -30z m3 -69 c0 -8 -5 -12 -10 -9
-6 4 -8 11 -5 16 9 14 15 11 15 -7z m-1140 -40 c0 -2 -9 -4 -21 -4 -11 0 -18
4 -14 10 5 8 35 3 35 -6z m1140 -28 c0 -3 -4 -8 -10 -11 -5 -3 -10 -1 -10 4 0
6 5 11 10 11 6 0 10 -2 10 -4z m-5 -36 c3 -5 1 -10 -4 -10 -6 0 -11 5 -11 10
0 6 2 10 4 10 3 0 8 -4 11 -10z m197 -142 c-8 -8 -9 -4 -5 13 4 13 8 18 11 10
2 -7 -1 -18 -6 -23z m-5 -50 c-3 -7 -5 -2 -5 12 0 14 2 19 5 13 2 -7 2 -19 0
-25z m-1 -43 c0 -14 -4 -25 -8 -25 -6 0 -5 25 1 48 3 10 7 -2 7 -23z m-147
-179 c-15 -15 -79 -54 -74 -45 4 6 21 19 39 30 29 18 45 24 35 15z"/>
</g>
</svg>
